<mxfile host="Electron" agent="Mozilla/5.0 (Windows NT 10.0; Win64; x64) AppleWebKit/537.36 (KHTML, like Gecko) draw.io/25.0.2 Chrome/128.0.6613.186 Electron/32.2.5 Safari/537.36" version="25.0.2">
  <diagram name="PÃ¡gina-1" id="xKfO8FzryIBGfD8RigxX">
    <mxGraphModel dx="2973" dy="899" grid="1" gridSize="10" guides="1" tooltips="1" connect="1" arrows="1" fold="1" page="1" pageScale="1" pageWidth="827" pageHeight="1169" math="0" shadow="0">
      <root>
        <mxCell id="0" />
        <mxCell id="1" parent="0" />
        <mxCell id="aBEEbruR1pEnWZUi6oFD-1" style="edgeStyle=orthogonalEdgeStyle;rounded=0;orthogonalLoop=1;jettySize=auto;html=1;entryX=0.5;entryY=0;entryDx=0;entryDy=0;" edge="1" parent="1" source="aBEEbruR1pEnWZUi6oFD-2" target="aBEEbruR1pEnWZUi6oFD-9">
          <mxGeometry relative="1" as="geometry" />
        </mxCell>
        <mxCell id="aBEEbruR1pEnWZUi6oFD-2" value="&lt;font style=&quot;font-size: 21px;&quot;&gt;INICIO&lt;/font&gt;" style="rounded=1;whiteSpace=wrap;html=1;" vertex="1" parent="1">
          <mxGeometry x="174" y="30" width="120" height="60" as="geometry" />
        </mxCell>
        <mxCell id="aBEEbruR1pEnWZUi6oFD-3" value="&lt;span style=&quot;font-size: 21px;&quot;&gt;FIM&lt;/span&gt;" style="rounded=1;whiteSpace=wrap;html=1;" vertex="1" parent="1">
          <mxGeometry x="294" y="1070" width="120" height="60" as="geometry" />
        </mxCell>
        <mxCell id="aBEEbruR1pEnWZUi6oFD-7" value="n1 = 0" style="rhombus;whiteSpace=wrap;html=1;" vertex="1" parent="1">
          <mxGeometry x="132" y="340" width="166" height="160" as="geometry" />
        </mxCell>
        <mxCell id="aBEEbruR1pEnWZUi6oFD-24" style="edgeStyle=orthogonalEdgeStyle;rounded=0;orthogonalLoop=1;jettySize=auto;html=1;entryX=0.5;entryY=0;entryDx=0;entryDy=0;" edge="1" parent="1" source="aBEEbruR1pEnWZUi6oFD-9" target="aBEEbruR1pEnWZUi6oFD-7">
          <mxGeometry relative="1" as="geometry" />
        </mxCell>
        <mxCell id="aBEEbruR1pEnWZUi6oFD-9" value="n1 =" style="html=1;strokeWidth=2;shape=manualInput;whiteSpace=wrap;rounded=1;size=26;arcSize=11;" vertex="1" parent="1">
          <mxGeometry x="150" y="180" width="130" height="100" as="geometry" />
        </mxCell>
        <mxCell id="aBEEbruR1pEnWZUi6oFD-34" style="edgeStyle=orthogonalEdgeStyle;rounded=0;orthogonalLoop=1;jettySize=auto;html=1;entryX=0.5;entryY=0;entryDx=0;entryDy=0;" edge="1" parent="1" source="aBEEbruR1pEnWZUi6oFD-13" target="aBEEbruR1pEnWZUi6oFD-3">
          <mxGeometry relative="1" as="geometry" />
        </mxCell>
        <mxCell id="aBEEbruR1pEnWZUi6oFD-13" value="INVALIDO" style="strokeWidth=2;html=1;shape=mxgraph.flowchart.document2;whiteSpace=wrap;size=0.25;" vertex="1" parent="1">
          <mxGeometry x="520" y="480" width="160" height="90" as="geometry" />
        </mxCell>
        <mxCell id="aBEEbruR1pEnWZUi6oFD-14" style="edgeStyle=orthogonalEdgeStyle;rounded=0;orthogonalLoop=1;jettySize=auto;html=1;entryX=0.5;entryY=0;entryDx=0;entryDy=0;entryPerimeter=0;" edge="1" parent="1" source="aBEEbruR1pEnWZUi6oFD-7" target="aBEEbruR1pEnWZUi6oFD-13">
          <mxGeometry relative="1" as="geometry" />
        </mxCell>
        <mxCell id="aBEEbruR1pEnWZUi6oFD-25" value="SIM" style="text;html=1;align=center;verticalAlign=middle;resizable=0;points=[];autosize=1;strokeColor=none;fillColor=none;" vertex="1" parent="1">
          <mxGeometry x="340" y="358" width="40" height="30" as="geometry" />
        </mxCell>
        <mxCell id="aBEEbruR1pEnWZUi6oFD-27" style="edgeStyle=orthogonalEdgeStyle;rounded=0;orthogonalLoop=1;jettySize=auto;html=1;entryX=0.5;entryY=0;entryDx=0;entryDy=0;" edge="1" parent="1" source="aBEEbruR1pEnWZUi6oFD-7" target="aBEEbruR1pEnWZUi6oFD-29">
          <mxGeometry relative="1" as="geometry">
            <mxPoint x="-80" y="490" as="targetPoint" />
          </mxGeometry>
        </mxCell>
        <mxCell id="aBEEbruR1pEnWZUi6oFD-28" value="NAO" style="text;html=1;align=center;verticalAlign=middle;resizable=0;points=[];autosize=1;strokeColor=none;fillColor=none;" vertex="1" parent="1">
          <mxGeometry x="50" y="358" width="50" height="30" as="geometry" />
        </mxCell>
        <mxCell id="aBEEbruR1pEnWZUi6oFD-33" style="edgeStyle=orthogonalEdgeStyle;rounded=0;orthogonalLoop=1;jettySize=auto;html=1;entryX=0.5;entryY=0;entryDx=0;entryDy=0;entryPerimeter=0;" edge="1" parent="1" source="aBEEbruR1pEnWZUi6oFD-29" target="aBEEbruR1pEnWZUi6oFD-32">
          <mxGeometry relative="1" as="geometry">
            <mxPoint x="-180" y="750" as="targetPoint" />
            <Array as="points">
              <mxPoint x="-180" y="620" />
              <mxPoint x="-180" y="760" />
            </Array>
          </mxGeometry>
        </mxCell>
        <mxCell id="aBEEbruR1pEnWZUi6oFD-29" value="n1 &amp;gt; 0" style="rhombus;whiteSpace=wrap;html=1;" vertex="1" parent="1">
          <mxGeometry x="-116" y="540" width="166" height="160" as="geometry" />
        </mxCell>
        <mxCell id="aBEEbruR1pEnWZUi6oFD-35" style="edgeStyle=orthogonalEdgeStyle;rounded=0;orthogonalLoop=1;jettySize=auto;html=1;entryX=0;entryY=0.75;entryDx=0;entryDy=0;" edge="1" parent="1" source="aBEEbruR1pEnWZUi6oFD-30" target="aBEEbruR1pEnWZUi6oFD-3">
          <mxGeometry relative="1" as="geometry" />
        </mxCell>
        <mxCell id="aBEEbruR1pEnWZUi6oFD-30" value="POSITIVO" style="strokeWidth=2;html=1;shape=mxgraph.flowchart.document2;whiteSpace=wrap;size=0.25;" vertex="1" parent="1">
          <mxGeometry x="70" y="750" width="160" height="90" as="geometry" />
        </mxCell>
        <mxCell id="aBEEbruR1pEnWZUi6oFD-31" style="edgeStyle=orthogonalEdgeStyle;rounded=0;orthogonalLoop=1;jettySize=auto;html=1;entryX=0.5;entryY=0;entryDx=0;entryDy=0;entryPerimeter=0;" edge="1" parent="1" source="aBEEbruR1pEnWZUi6oFD-29" target="aBEEbruR1pEnWZUi6oFD-30">
          <mxGeometry relative="1" as="geometry" />
        </mxCell>
        <mxCell id="aBEEbruR1pEnWZUi6oFD-36" style="edgeStyle=orthogonalEdgeStyle;rounded=0;orthogonalLoop=1;jettySize=auto;html=1;entryX=0.5;entryY=1;entryDx=0;entryDy=0;" edge="1" parent="1" source="aBEEbruR1pEnWZUi6oFD-32" target="aBEEbruR1pEnWZUi6oFD-3">
          <mxGeometry relative="1" as="geometry">
            <Array as="points">
              <mxPoint x="-180" y="930" />
              <mxPoint x="97" y="930" />
              <mxPoint x="97" y="1150" />
              <mxPoint x="354" y="1150" />
            </Array>
          </mxGeometry>
        </mxCell>
        <mxCell id="aBEEbruR1pEnWZUi6oFD-32" value="NEGATIVO" style="strokeWidth=2;html=1;shape=mxgraph.flowchart.document2;whiteSpace=wrap;size=0.25;" vertex="1" parent="1">
          <mxGeometry x="-260" y="750" width="160" height="90" as="geometry" />
        </mxCell>
        <mxCell id="aBEEbruR1pEnWZUi6oFD-37" value="SIM" style="text;html=1;align=center;verticalAlign=middle;resizable=0;points=[];autosize=1;strokeColor=none;fillColor=none;" vertex="1" parent="1">
          <mxGeometry x="60" y="568" width="40" height="30" as="geometry" />
        </mxCell>
        <mxCell id="aBEEbruR1pEnWZUi6oFD-38" value="NAO" style="text;html=1;align=center;verticalAlign=middle;resizable=0;points=[];autosize=1;strokeColor=none;fillColor=none;" vertex="1" parent="1">
          <mxGeometry x="-165" y="568" width="50" height="30" as="geometry" />
        </mxCell>
      </root>
    </mxGraphModel>
  </diagram>
</mxfile>
